<svg width="138" height="44" viewBox="0 0 138 44" fill="none" xmlns="http://www.w3.org/2000/svg">
<path d="M68.407 34.6766C75.1742 34.7953 80.8403 29.3371 81.2842 22.4016C81.2602 15.4578 75.9302 9.80672 69.1629 9.688C62.3964 9.56928 56.7288 15.0274 56.288 21.963C56.3082 28.9068 61.6397 34.5578 68.407 34.6766Z" fill="#434343"/>
<path d="M69.0003 7C60.7164 7 54 13.7159 54 22C54 30.2834 60.7171 37 69.0003 37C77.2836 37 84 30.2834 84 22C84 13.7159 77.2836 7 69.0003 7ZM68.9997 32.9091C62.9746 32.9091 58.0901 28.1902 58.0901 22.3675C58.0901 22.2434 58.1072 22.1227 58.1113 22C58.1072 21.8773 58.0901 21.7559 58.0901 21.6325C58.0901 15.8098 62.9753 11.0909 68.9997 11.0909C75.0247 11.0909 79.9085 15.8098 79.9085 21.6325C79.9085 21.7559 79.8942 21.8773 79.8908 22C79.8949 22.1227 79.9085 22.2434 79.9085 22.3675C79.9078 28.1902 75.0247 32.9091 68.9997 32.9091Z" fill="white"/>
<path d="M88.5332 30.9648C89.2988 30.9922 90.0964 31.0059 90.9258 31.0059H91.7119C92.0446 31.0013 92.6188 30.999 93.4346 30.999C94.2549 30.9945 94.9544 30.9899 95.5332 30.9854C96.1165 30.9808 96.6953 30.9694 97.2695 30.9512C97.306 31.2656 97.3835 31.5938 97.502 31.9355C97.6204 32.2728 97.7344 32.5508 97.8438 32.7695C97.9531 32.9837 98.0967 33.2435 98.2744 33.5488C98.238 33.6263 98.1582 33.6878 98.0352 33.7334C97.8711 33.4235 97.6729 33.1478 97.4404 32.9062C97.208 32.6647 96.9141 32.4368 96.5586 32.2227C96.2077 32.0085 95.7679 31.833 95.2393 31.6963C94.7152 31.5596 94.1182 31.4684 93.4482 31.4229H91.7119C91.6527 33.3916 91.623 34.8796 91.623 35.8867H93.5713C93.6852 35.8867 93.7923 35.8776 93.8926 35.8594C93.9928 35.8366 94.0863 35.8001 94.1729 35.75C94.264 35.6999 94.3415 35.652 94.4053 35.6064C94.4736 35.5563 94.5443 35.4834 94.6172 35.3877C94.6947 35.2874 94.7562 35.2054 94.8018 35.1416C94.8473 35.0778 94.9043 34.9775 94.9727 34.8408C95.041 34.6995 95.0934 34.5924 95.1299 34.5195C95.1663 34.4466 95.221 34.3258 95.2939 34.1572C95.3714 33.9886 95.4284 33.8656 95.4648 33.7881C95.6243 33.8564 95.7109 33.9134 95.7246 33.959C95.4557 34.6608 95.3213 35.374 95.3213 36.0986C95.3213 36.8187 95.4557 37.5342 95.7246 38.2451C95.6927 38.3089 95.6061 38.3682 95.4648 38.4229C95.1868 37.7529 94.9749 37.304 94.8291 37.0762C94.4919 36.5703 94.0726 36.3151 93.5713 36.3105H91.623C91.623 37.2904 91.6481 38.5413 91.6982 40.0635C91.7028 40.182 91.7552 40.2845 91.8555 40.3711C91.9557 40.4531 92.0993 40.5169 92.2861 40.5625C92.4775 40.6081 92.637 40.6423 92.7646 40.665C92.8968 40.6833 93.0677 40.7015 93.2773 40.7197C93.2956 40.8109 93.3047 40.8724 93.3047 40.9043C93.3047 40.9408 93.2956 40.9863 93.2773 41.041C92.5026 41.0137 91.7096 41 90.8984 41C90.0781 41 89.2852 41.0137 88.5195 41.041C88.5013 40.9863 88.4922 40.9408 88.4922 40.9043C88.4922 40.8724 88.5013 40.8109 88.5195 40.7197C88.6562 40.7061 88.7656 40.6947 88.8477 40.6855C88.9297 40.6764 89.0413 40.6605 89.1826 40.6377C89.3285 40.6149 89.4447 40.5898 89.5312 40.5625C89.6224 40.5306 89.7158 40.4919 89.8115 40.4463C89.9072 40.4007 89.9779 40.346 90.0234 40.2822C90.0736 40.2184 90.0986 40.1455 90.0986 40.0635C90.1533 38.637 90.1807 37.1992 90.1807 35.75C90.1807 34.2734 90.1579 32.9997 90.1123 31.9287C90.1077 31.8102 90.0553 31.71 89.9551 31.6279C89.8594 31.5459 89.7135 31.4821 89.5176 31.4365C89.3216 31.391 89.1644 31.3613 89.0459 31.3477C88.9274 31.3294 88.7565 31.3089 88.5332 31.2861C88.515 31.2041 88.5059 31.1471 88.5059 31.1152C88.5059 31.0879 88.515 31.0378 88.5332 30.9648ZM104.406 30.7188C104.757 30.7188 105.126 30.7552 105.514 30.8281C105.906 30.901 106.291 31.0218 106.669 31.1904C107.052 31.3545 107.416 31.5732 107.763 31.8467C108.114 32.1156 108.421 32.446 108.686 32.8379C108.95 33.2298 109.16 33.6878 109.314 34.2119C109.474 34.736 109.554 35.3376 109.554 36.0166C109.554 36.7002 109.476 37.3063 109.321 37.835C109.166 38.359 108.957 38.8171 108.692 39.209C108.428 39.5964 108.12 39.9245 107.77 40.1934C107.423 40.4577 107.056 40.6719 106.669 40.8359C106.286 40.9954 105.894 41.1094 105.493 41.1777C105.092 41.2507 104.709 41.2871 104.345 41.2871C103.998 41.2871 103.629 41.2507 103.237 41.1777C102.85 41.1094 102.465 40.9954 102.082 40.8359C101.699 40.6719 101.332 40.4577 100.981 40.1934C100.635 39.9245 100.327 39.5964 100.059 39.209C99.7943 38.8171 99.5824 38.359 99.4229 37.835C99.2679 37.3063 99.1904 36.7002 99.1904 36.0166C99.1904 35.3148 99.2725 34.6973 99.4365 34.1641C99.6006 33.6263 99.8171 33.1615 100.086 32.7695C100.359 32.3776 100.674 32.0518 101.029 31.792C101.389 31.5277 101.761 31.3158 102.144 31.1562C102.531 30.9967 102.918 30.8851 103.306 30.8213C103.698 30.7529 104.064 30.7188 104.406 30.7188ZM104.372 31.2109C103.944 31.2109 103.563 31.2816 103.23 31.4229C102.898 31.5641 102.606 31.7555 102.355 31.9971C102.105 32.234 101.893 32.512 101.72 32.8311C101.547 33.1455 101.405 33.4805 101.296 33.8359C101.191 34.1914 101.114 34.556 101.063 34.9297C101.018 35.3034 100.995 35.6657 100.995 36.0166C100.995 36.3538 101.018 36.7048 101.063 37.0693C101.109 37.4339 101.184 37.7939 101.289 38.1494C101.394 38.5003 101.531 38.8353 101.699 39.1543C101.872 39.4733 102.084 39.7536 102.335 39.9951C102.586 40.2367 102.877 40.4303 103.21 40.5762C103.547 40.7174 103.935 40.7881 104.372 40.7881C104.8 40.7881 105.181 40.7197 105.514 40.583C105.846 40.4417 106.138 40.2526 106.389 40.0156C106.639 39.7741 106.849 39.4961 107.018 39.1816C107.191 38.8626 107.33 38.5277 107.435 38.1768C107.544 37.8213 107.621 37.459 107.667 37.0898C107.717 36.7207 107.742 36.363 107.742 36.0166C107.742 35.6657 107.717 35.3034 107.667 34.9297C107.621 34.556 107.544 34.1914 107.435 33.8359C107.33 33.4805 107.191 33.1455 107.018 32.8311C106.844 32.512 106.632 32.234 106.382 31.9971C106.131 31.7555 105.84 31.5641 105.507 31.4229C105.174 31.2816 104.796 31.2109 104.372 31.2109ZM123.178 30.9512C124.199 30.9876 125.014 31.0059 125.625 31.0059C126.764 30.9694 127.464 30.9512 127.724 30.9512C128.147 30.9512 128.546 30.9694 128.92 31.0059C129.294 31.0423 129.679 31.1107 130.075 31.2109C130.476 31.3066 130.839 31.4342 131.162 31.5938C131.486 31.7487 131.796 31.9561 132.092 32.2158C132.388 32.4756 132.636 32.7764 132.837 33.1182C133.037 33.46 133.197 33.8724 133.315 34.3555C133.434 34.834 133.493 35.3649 133.493 35.9482C133.457 36.5088 133.359 37.0238 133.199 37.4932C133.044 37.9626 132.844 38.3682 132.598 38.71C132.356 39.0518 132.069 39.3571 131.736 39.626C131.404 39.8949 131.055 40.1136 130.69 40.2822C130.33 40.4508 129.938 40.5898 129.515 40.6992C129.095 40.8086 128.685 40.8861 128.284 40.9316C127.888 40.9772 127.478 41 127.054 41C125.345 41 124.048 41.0137 123.164 41.041C123.146 40.9863 123.137 40.9408 123.137 40.9043C123.137 40.8724 123.146 40.8109 123.164 40.7197C123.301 40.7061 123.41 40.6947 123.492 40.6855C123.574 40.6764 123.686 40.6605 123.827 40.6377C123.973 40.6149 124.089 40.5898 124.176 40.5625C124.267 40.5306 124.36 40.4919 124.456 40.4463C124.552 40.4007 124.622 40.346 124.668 40.2822C124.718 40.2184 124.743 40.1455 124.743 40.0635C124.798 38.637 124.825 37.1992 124.825 35.75C124.825 34.2734 124.802 32.9997 124.757 31.9287C124.752 31.8102 124.7 31.71 124.6 31.6279C124.499 31.5413 124.354 31.4753 124.162 31.4297C123.975 31.3841 123.816 31.3522 123.684 31.334C123.556 31.3112 123.387 31.2907 123.178 31.2725C123.16 31.1904 123.15 31.1335 123.15 31.1016C123.15 31.0742 123.16 31.0241 123.178 30.9512ZM126.356 31.9287C126.297 33.4782 126.268 34.9206 126.268 36.2559C126.268 36.9941 126.293 38.4069 126.343 40.4941C126.539 40.5033 126.819 40.5078 127.184 40.5078C127.922 40.5078 128.578 40.3962 129.152 40.1729C129.727 39.945 130.198 39.6283 130.567 39.2227C130.937 38.8171 131.215 38.3385 131.401 37.7871C131.593 37.2311 131.688 36.6182 131.688 35.9482C131.688 35.6019 131.661 35.2624 131.606 34.9297C131.552 34.597 131.465 34.2575 131.347 33.9111C131.228 33.5648 131.064 33.2458 130.854 32.9541C130.645 32.6624 130.394 32.4027 130.103 32.1748C129.815 31.9424 129.46 31.7624 129.036 31.6348C128.617 31.5026 128.152 31.4365 127.642 31.4365C127.172 31.4365 126.744 31.4661 126.356 31.5254V31.9287Z" fill="white"/>
<path d="M116.588 30.7188C116.939 30.7188 117.308 30.7552 117.695 30.8281C118.087 30.901 118.472 31.0218 118.851 31.1904C119.233 31.3545 119.598 31.5732 119.944 31.8467C120.295 32.1156 120.603 32.446 120.867 32.8379C121.132 33.2298 121.341 33.6878 121.496 34.2119C121.656 34.736 121.735 35.3376 121.735 36.0166C121.735 36.7002 121.658 37.3063 121.503 37.835C121.348 38.359 121.138 38.8171 120.874 39.209C120.61 39.5964 120.302 39.9245 119.951 40.1934C119.605 40.4577 119.238 40.6719 118.851 40.8359C118.468 40.9954 118.076 41.1094 117.675 41.1777C117.274 41.2507 116.891 41.2871 116.526 41.2871C116.18 41.2871 115.811 41.2507 115.419 41.1777C115.032 41.1094 114.646 40.9954 114.264 40.8359C113.881 40.6719 113.514 40.4577 113.163 40.1934C112.817 39.9245 112.509 39.5964 112.24 39.209C111.976 38.8171 111.764 38.359 111.604 37.835C111.45 37.3063 111.372 36.7002 111.372 36.0166C111.372 35.3148 111.454 34.6973 111.618 34.1641C111.782 33.6263 111.999 33.1615 112.268 32.7695C112.541 32.3776 112.855 32.0518 113.211 31.792C113.571 31.5277 113.942 31.3158 114.325 31.1562C114.713 30.9967 115.1 30.8851 115.487 30.8213C115.879 30.7529 116.246 30.7188 116.588 30.7188ZM116.554 31.2109C116.125 31.2109 115.745 31.2816 115.412 31.4229C115.079 31.5641 114.788 31.7555 114.537 31.9971C114.286 32.234 114.075 32.512 113.901 32.8311C113.728 33.1455 113.587 33.4805 113.478 33.8359C113.373 34.1914 113.295 34.556 113.245 34.9297C113.2 35.3034 113.177 35.6657 113.177 36.0166C113.177 36.3538 113.2 36.7048 113.245 37.0693C113.291 37.4339 113.366 37.7939 113.471 38.1494C113.576 38.5003 113.712 38.8353 113.881 39.1543C114.054 39.4733 114.266 39.7536 114.517 39.9951C114.767 40.2367 115.059 40.4303 115.392 40.5762C115.729 40.7174 116.116 40.7881 116.554 40.7881C116.982 40.7881 117.363 40.7197 117.695 40.583C118.028 40.4417 118.32 40.2526 118.57 40.0156C118.821 39.7741 119.031 39.4961 119.199 39.1816C119.372 38.8626 119.511 38.5277 119.616 38.1768C119.726 37.8213 119.803 37.459 119.849 37.0898C119.899 36.7207 119.924 36.363 119.924 36.0166C119.924 35.6657 119.899 35.3034 119.849 34.9297C119.803 34.556 119.726 34.1914 119.616 33.8359C119.511 33.4805 119.372 33.1455 119.199 32.8311C119.026 32.512 118.814 32.234 118.563 31.9971C118.313 31.7555 118.021 31.5641 117.688 31.4229C117.356 31.2816 116.978 31.2109 116.554 31.2109Z" fill="#7B2C00"/>
<path d="M91.999 18.1561C92.7682 18.4663 94.6507 21.548 89.8062 28.1973C88.2595 30.3247 86.77 29.7198 85.8027 31.0506C84.8371 32.3791 77.1461 42.9414 77.1461 42.9414C77.1461 42.9414 74.8751 43.1512 74.3263 41.7449L91.4765 18.1889C91.4774 18.1899 91.6115 17.9983 91.999 18.1561Z" fill="#8F8F8F"/>
<path d="M58.0735 1.48253C58.4547 1.16893 58.4614 1.63226 58.4614 1.63226C58.4614 1.63226 55.9427 5.44898 56.4958 5.72273C57.0488 5.99649 59.3129 1.88571 60.0529 2.08565C60.7431 2.26815 57.5488 6.22374 58.16 6.41524C58.7709 6.60316 61.4759 2.86295 61.4759 2.86295C61.4759 2.86295 61.9831 2.6057 61.8606 3.01931C60.355 8.118 57.8197 9.43421 57.8197 9.43421C57.8197 9.43421 57.3395 9.73197 56.8267 9.52931C56.7801 9.5082 49.4951 20.1361 48.5075 21.5618C48.0301 22.2559 45.0826 21.0496 45.5606 20.3596C46.547 18.9335 53.925 8.34423 53.8781 8.32649C53.365 8.12123 53.4148 7.65176 53.4148 7.65176C53.4148 7.65176 53.4032 5.3182 58.0735 1.48253Z" fill="#898989"/>
<path d="M10.9746 7.47522C10.8288 7.15165 10.6852 6.8691 10.5439 6.62756C10.4027 6.38147 10.2181 6.12626 9.99023 5.86194C9.76237 5.59762 9.51855 5.38114 9.25879 5.21252C8.99902 5.0439 8.68001 4.90491 8.30176 4.79553C7.9235 4.68616 7.50651 4.63147 7.05078 4.63147C6.55859 4.63147 6.11198 4.73173 5.71094 4.93225C5.3099 5.13277 4.97949 5.39482 4.71973 5.71838C4.46452 6.04195 4.24805 6.41793 4.07031 6.84631C3.89714 7.27014 3.77409 7.69853 3.70117 8.13147C3.62826 8.55986 3.5918 8.99508 3.5918 9.43713C3.5918 9.87463 3.63053 10.3099 3.70801 10.7428C3.78548 11.1712 3.91309 11.5973 4.09082 12.0211C4.27311 12.4449 4.49642 12.8164 4.76074 13.1354C5.02507 13.4544 5.35775 13.7142 5.75879 13.9147C6.16439 14.1106 6.61328 14.2086 7.10547 14.2086C8.10807 14.2086 8.80534 13.9853 9.19727 13.5387V10.7633C9.19727 10.6676 9.15853 10.5833 9.08105 10.5104C9.00358 10.4329 8.91471 10.3737 8.81445 10.3326C8.71419 10.2916 8.57975 10.2552 8.41113 10.2233C8.24707 10.1868 8.11263 10.1617 8.00781 10.1481C7.90299 10.1344 7.77083 10.1207 7.61133 10.1071C7.5931 10.0341 7.58398 9.97945 7.58398 9.94299C7.58398 9.91109 7.5931 9.85868 7.61133 9.78577C8.64128 9.82222 9.43424 9.84045 9.99023 9.84045C10.5553 9.84045 11.3483 9.82222 12.3691 9.78577C12.3919 9.87691 12.4033 9.92932 12.4033 9.94299C12.4033 9.96122 12.3919 10.0159 12.3691 10.1071C12.2096 10.1207 12.0775 10.1344 11.9727 10.1481C11.8678 10.1617 11.7311 10.1868 11.5625 10.2233C11.3984 10.2552 11.2663 10.2916 11.166 10.3326C11.0703 10.3737 10.9837 10.4329 10.9062 10.5104C10.8288 10.5833 10.79 10.6676 10.79 10.7633V11.775C10.79 12.6409 10.8926 13.3496 11.0977 13.901C10.3457 14.179 9.67806 14.3818 9.09473 14.5094C8.51139 14.637 7.84831 14.7008 7.10547 14.7008C6.66341 14.7008 6.21908 14.6552 5.77246 14.5641C5.32585 14.4729 4.85645 14.302 4.36426 14.0514C3.87663 13.8007 3.44596 13.4863 3.07227 13.108C2.70312 12.7298 2.39551 12.2239 2.14941 11.5905C1.90788 10.957 1.78711 10.2392 1.78711 9.43713C1.78711 8.85836 1.84863 8.32288 1.97168 7.83069C2.09928 7.33394 2.2679 6.90784 2.47754 6.55237C2.68717 6.1969 2.93555 5.87789 3.22266 5.59534C3.51432 5.31278 3.81738 5.08264 4.13184 4.90491C4.44629 4.72717 4.77669 4.58134 5.12305 4.46741C5.47396 4.34892 5.80664 4.26689 6.12109 4.22131C6.43555 4.17118 6.74544 4.14612 7.05078 4.14612C7.5612 4.14612 8.04655 4.17802 8.50684 4.24182C8.97168 4.30107 9.43424 4.37626 9.89453 4.46741C10.3548 4.554 10.7194 4.61324 10.9883 4.64514C10.9199 4.85022 10.8857 5.13961 10.8857 5.51331C10.8857 6.1331 10.9974 6.73694 11.2207 7.32483C11.1934 7.40686 11.1113 7.45699 10.9746 7.47522ZM18.8838 4.13928C19.2347 4.13928 19.6038 4.17574 19.9912 4.24866C20.3831 4.32157 20.7682 4.44234 21.1465 4.61096C21.5293 4.77502 21.8939 4.99377 22.2402 5.26721C22.5911 5.53609 22.8988 5.8665 23.1631 6.25842C23.4274 6.65035 23.637 7.10836 23.792 7.63245C23.9515 8.15653 24.0312 8.7581 24.0312 9.43713C24.0312 10.1207 23.9538 10.7268 23.7988 11.2555C23.6439 11.7796 23.4342 12.2376 23.1699 12.6295C22.9056 13.0169 22.598 13.345 22.2471 13.6139C21.9007 13.8782 21.5339 14.0924 21.1465 14.2565C20.7637 14.416 20.3717 14.5299 19.9707 14.5983C19.5697 14.6712 19.1868 14.7076 18.8223 14.7076C18.4759 14.7076 18.1068 14.6712 17.7148 14.5983C17.3275 14.5299 16.9424 14.416 16.5596 14.2565C16.1768 14.0924 15.8099 13.8782 15.459 13.6139C15.1126 13.345 14.805 13.0169 14.5361 12.6295C14.2718 12.2376 14.0599 11.7796 13.9004 11.2555C13.7454 10.7268 13.668 10.1207 13.668 9.43713C13.668 8.73531 13.75 8.1178 13.9141 7.58459C14.0781 7.04683 14.2946 6.58199 14.5635 6.19006C14.8369 5.79814 15.1514 5.47229 15.5068 5.21252C15.8669 4.9482 16.2383 4.73629 16.6211 4.57678C17.0085 4.41728 17.3958 4.30562 17.7832 4.24182C18.1751 4.17346 18.542 4.13928 18.8838 4.13928ZM18.8496 4.63147C18.4212 4.63147 18.0407 4.70211 17.708 4.84338C17.3753 4.98466 17.0837 5.17607 16.833 5.4176C16.5824 5.65458 16.3704 5.93258 16.1973 6.25159C16.0241 6.56604 15.8828 6.901 15.7734 7.25647C15.6686 7.61194 15.5911 7.97652 15.541 8.35022C15.4954 8.72392 15.4727 9.08622 15.4727 9.43713C15.4727 9.77437 15.4954 10.1253 15.541 10.4899C15.5866 10.8545 15.6618 11.2145 15.7666 11.5699C15.8714 11.9209 16.0081 12.2558 16.1768 12.5748C16.3499 12.8938 16.5618 13.1741 16.8125 13.4156C17.0632 13.6572 17.3548 13.8509 17.6875 13.9967C18.0247 14.138 18.4121 14.2086 18.8496 14.2086C19.278 14.2086 19.6585 14.1403 19.9912 14.0035C20.3239 13.8623 20.6156 13.6731 20.8662 13.4362C21.1169 13.1946 21.3265 12.9166 21.4951 12.6022C21.6683 12.2832 21.8073 11.9482 21.9121 11.5973C22.0215 11.2418 22.099 10.8795 22.1445 10.5104C22.1947 10.1412 22.2197 9.78349 22.2197 9.43713C22.2197 9.08622 22.1947 8.72392 22.1445 8.35022C22.099 7.97652 22.0215 7.61194 21.9121 7.25647C21.8073 6.901 21.6683 6.56604 21.4951 6.25159C21.3219 5.93258 21.11 5.65458 20.8594 5.4176C20.6087 5.17607 20.3171 4.98466 19.9844 4.84338C19.6517 4.70211 19.2734 4.63147 18.8496 4.63147ZM37.6553 4.3717C38.6761 4.40816 39.4919 4.42639 40.1025 4.42639C41.2419 4.38993 41.9414 4.3717 42.2012 4.3717C42.625 4.3717 43.0238 4.38993 43.3975 4.42639C43.7712 4.46285 44.1562 4.53121 44.5527 4.63147C44.9538 4.72717 45.3161 4.85478 45.6396 5.01428C45.9632 5.16923 46.2731 5.37659 46.5693 5.63635C46.8656 5.89612 47.1139 6.1969 47.3145 6.5387C47.515 6.88049 47.6745 7.29293 47.793 7.776C47.9115 8.25452 47.9707 8.78544 47.9707 9.36877C47.9342 9.92932 47.8363 10.4443 47.6768 10.9137C47.5218 11.3831 47.3213 11.7887 47.0752 12.1305C46.8337 12.4723 46.5465 12.7776 46.2139 13.0465C45.8812 13.3154 45.5326 13.5341 45.168 13.7028C44.8079 13.8714 44.416 14.0104 43.9922 14.1198C43.5729 14.2291 43.1628 14.3066 42.7617 14.3522C42.3652 14.3977 41.9551 14.4205 41.5312 14.4205C39.8223 14.4205 38.5257 14.4342 37.6416 14.4615C37.6234 14.4069 37.6143 14.3613 37.6143 14.3248C37.6143 14.2929 37.6234 14.2314 37.6416 14.1403C37.7783 14.1266 37.8877 14.1152 37.9697 14.1061C38.0518 14.097 38.1634 14.081 38.3047 14.0582C38.4505 14.0354 38.5667 14.0104 38.6533 13.983C38.7445 13.9511 38.8379 13.9124 38.9336 13.8668C39.0293 13.8212 39.0999 13.7666 39.1455 13.7028C39.1956 13.639 39.2207 13.566 39.2207 13.484C39.2754 12.0576 39.3027 10.6198 39.3027 9.17053C39.3027 7.69397 39.2799 6.42021 39.2344 5.34924C39.2298 5.23075 39.1774 5.13049 39.0771 5.04846C38.9769 4.96187 38.8311 4.89579 38.6396 4.85022C38.4528 4.80465 38.2933 4.77275 38.1611 4.75452C38.0335 4.73173 37.8649 4.71122 37.6553 4.69299C37.637 4.61096 37.6279 4.554 37.6279 4.52209C37.6279 4.49475 37.637 4.44462 37.6553 4.3717ZM40.834 5.34924C40.7747 6.89872 40.7451 8.34111 40.7451 9.67639C40.7451 10.4147 40.7702 11.8274 40.8203 13.9147C41.0163 13.9238 41.2965 13.9283 41.6611 13.9283C42.3994 13.9283 43.0557 13.8167 43.6299 13.5934C44.2041 13.3655 44.6758 13.0488 45.0449 12.6432C45.4141 12.2376 45.6921 11.7591 45.8789 11.2076C46.0703 10.6517 46.166 10.0387 46.166 9.36877C46.166 9.02242 46.1387 8.6829 46.084 8.35022C46.0293 8.01754 45.9427 7.67802 45.8242 7.33167C45.7057 6.98531 45.5417 6.6663 45.332 6.37463C45.1224 6.08297 44.8717 5.8232 44.5801 5.59534C44.293 5.36292 43.9375 5.1829 43.5137 5.0553C43.0944 4.92314 42.6296 4.85706 42.1191 4.85706C41.6497 4.85706 41.2214 4.88668 40.834 4.94592V5.34924Z" fill="white"/>
<path d="M31.0654 4.13928C31.4163 4.13928 31.7855 4.17574 32.1729 4.24866C32.5648 4.32157 32.9499 4.44234 33.3281 4.61096C33.7109 4.77502 34.0755 4.99377 34.4219 5.26721C34.7728 5.53609 35.0804 5.8665 35.3447 6.25842C35.609 6.65035 35.8187 7.10836 35.9736 7.63245C36.1331 8.15653 36.2129 8.7581 36.2129 9.43713C36.2129 10.1207 36.1354 10.7268 35.9805 11.2555C35.8255 11.7796 35.6159 12.2376 35.3516 12.6295C35.0872 13.0169 34.7796 13.345 34.4287 13.6139C34.0824 13.8782 33.7155 14.0924 33.3281 14.2565C32.9453 14.416 32.5534 14.5299 32.1523 14.5983C31.7513 14.6712 31.3685 14.7076 31.0039 14.7076C30.6576 14.7076 30.2884 14.6712 29.8965 14.5983C29.5091 14.5299 29.124 14.416 28.7412 14.2565C28.3584 14.0924 27.9915 13.8782 27.6406 13.6139C27.2943 13.345 26.9867 13.0169 26.7178 12.6295C26.4535 12.2376 26.2415 11.7796 26.082 11.2555C25.9271 10.7268 25.8496 10.1207 25.8496 9.43713C25.8496 8.73531 25.9316 8.1178 26.0957 7.58459C26.2598 7.04683 26.4762 6.58199 26.7451 6.19006C27.0186 5.79814 27.333 5.47229 27.6885 5.21252C28.0485 4.9482 28.4199 4.73629 28.8027 4.57678C29.1901 4.41728 29.5775 4.30562 29.9648 4.24182C30.3568 4.17346 30.7236 4.13928 31.0654 4.13928ZM31.0312 4.63147C30.6029 4.63147 30.2223 4.70211 29.8896 4.84338C29.557 4.98466 29.2653 5.17607 29.0146 5.4176C28.764 5.65458 28.5521 5.93258 28.3789 6.25159C28.2057 6.56604 28.0645 6.901 27.9551 7.25647C27.8503 7.61194 27.7728 7.97652 27.7227 8.35022C27.6771 8.72392 27.6543 9.08622 27.6543 9.43713C27.6543 9.77437 27.6771 10.1253 27.7227 10.4899C27.7682 10.8545 27.8434 11.2145 27.9482 11.5699C28.0531 11.9209 28.1898 12.2558 28.3584 12.5748C28.5316 12.8938 28.7435 13.1741 28.9941 13.4156C29.2448 13.6572 29.5365 13.8509 29.8691 13.9967C30.2064 14.138 30.5938 14.2086 31.0312 14.2086C31.4596 14.2086 31.8402 14.1403 32.1729 14.0035C32.5055 13.8623 32.7972 13.6731 33.0479 13.4362C33.2985 13.1946 33.5081 12.9166 33.6768 12.6022C33.8499 12.2832 33.9889 11.9482 34.0938 11.5973C34.2031 11.2418 34.2806 10.8795 34.3262 10.5104C34.3763 10.1412 34.4014 9.78349 34.4014 9.43713C34.4014 9.08622 34.3763 8.72392 34.3262 8.35022C34.2806 7.97652 34.2031 7.61194 34.0938 7.25647C33.9889 6.901 33.8499 6.56604 33.6768 6.25159C33.5036 5.93258 33.2917 5.65458 33.041 5.4176C32.7904 5.17607 32.4987 4.98466 32.166 4.84338C31.8333 4.70211 31.4551 4.63147 31.0312 4.63147Z" fill="#7B2C00"/>
</svg>
